<svg width="163" height="20" viewBox="0 0 163 20" fill="none" xmlns="http://www.w3.org/2000/svg">
<path d="M145.746 0.2771H162.086V2.36043H155.043V19.7215H152.789V2.36043H145.746V0.2771Z" fill="#1F5BFF"/>
<path d="M141.516 19.7215V0.2771H143.769V19.7215H141.516Z" fill="#1F5BFF"/>
<path d="M136.007 12.7771V0.2771H138.261V12.7771C138.261 15.0364 137.548 16.8049 136.12 18.0827C134.693 19.3604 132.777 19.9993 130.373 19.9993C127.969 19.9993 126.053 19.3604 124.626 18.0827C123.198 16.8049 122.484 15.0364 122.484 12.7771V0.2771H124.738V12.7771C124.738 14.3882 125.255 15.6567 126.288 16.5827C127.283 17.4715 128.645 17.916 130.373 17.916C132.101 17.916 133.462 17.4715 134.458 16.5827C135.491 15.6567 136.007 14.3882 136.007 12.7771Z" fill="#1F5BFF"/>
<path d="M107.82 2.36043V10.1382H114.3C115.502 10.1382 116.46 9.78636 117.174 9.08266C117.887 8.37895 118.244 7.43451 118.244 6.24932C118.244 5.06414 117.887 4.11969 117.174 3.41599C116.46 2.71229 115.502 2.36043 114.3 2.36043H107.82ZM120.78 19.7215H118.188L112.807 12.2215H107.82V19.7215H105.566V0.2771H114.3C116.178 0.2771 117.681 0.823396 118.808 1.91599C119.935 2.99006 120.498 4.43451 120.498 6.24932C120.498 7.87895 120.038 9.22155 119.118 10.2771C118.197 11.3141 116.939 11.9345 115.342 12.1382L120.78 19.7215Z" fill="#1F5BFF"/>
<path d="M100.785 12.2222H103.123C102.672 14.6296 101.555 16.5278 99.7704 17.9167C97.9861 19.3056 95.7416 20 93.037 20C89.9192 20 87.4306 19.0926 85.5712 17.2778C83.693 15.4444 82.7539 13.0185 82.7539 10C82.7539 6.96296 83.693 4.53704 85.5712 2.72222C87.4306 0.907407 89.9192 0 93.037 0C95.7416 0 97.9861 0.694444 99.7704 2.08333C101.555 3.47222 102.672 5.37037 103.123 7.77778H100.785C100.353 6.01852 99.4605 4.62963 98.1082 3.61111C96.7371 2.59259 95.0467 2.08333 93.037 2.08333C90.5954 2.08333 88.6514 2.80556 87.2052 4.25C85.7402 5.69444 85.0077 7.61111 85.0077 10C85.0077 12.3889 85.7402 14.3056 87.2052 15.75C88.6514 17.1944 90.5954 17.9167 93.037 17.9167C95.0467 17.9167 96.7371 17.4074 98.1082 16.3889C99.4605 15.3704 100.353 13.9815 100.785 12.2222Z" fill="#1F5BFF"/>
<path d="M67.9727 0.2771H81.4957V2.36043H70.2265V8.88821H80.6505V10.9715H70.2265V17.6382H81.4957V19.7215H67.9727V0.2771Z" fill="#1F5BFF"/>
<path d="M52.746 2.36043V10.1382H59.2258C60.4278 10.1382 61.3857 9.78636 62.0994 9.08266C62.8132 8.37895 63.17 7.43451 63.17 6.24932C63.17 5.06414 62.8132 4.11969 62.0994 3.41599C61.3857 2.71229 60.4278 2.36043 59.2258 2.36043H52.746ZM65.7056 19.7215H63.1137L57.7326 12.2215H52.746V19.7215H50.4922V0.2771H59.2258C61.104 0.2771 62.6066 0.823396 63.7335 1.91599C64.8604 2.99006 65.4239 4.43451 65.4239 6.24932C65.4239 7.87895 64.9637 9.22155 64.0434 10.2771C63.1231 11.3141 61.8647 11.9345 60.2682 12.1382L65.7056 19.7215Z" fill="#1F5BFF"/>
<path d="M22.9648 17.0745L30.1817 9.94284L22.9648 2.82499L25.8236 0L33.0264 7.1317L40.2432 0L43.0599 2.78344L35.8431 9.91515L43.0599 17.033L40.2012 19.858L32.9984 12.7263L25.7815 19.858L22.9648 17.0745Z" fill="#1F5BFF"/>
<path d="M17.2784 0L20.0951 2.78344V19.858H16.0733V6.75781L6.83849 15.8836H12.0514V19.858H2.85871V19.8164L2.81667 19.858L0 17.0745L17.2784 0Z" fill="#1F5BFF"/>
</svg>
